# xmcd
#
# Track frame offsets:
#	183
#	27643
#	55608
#	76743
#	91650
#	118663
#	134390
#	154433
#	184458
#	201055
#	214628
#	240420
#
# Disc length: 3440 seconds
#
# Revision: 1
# Processed by: cddbd v1.4PL0 Copyright (c) Steve Scherf et al.
# Submitted via: audiograbber 1.81.03
#
DISCID=9d0d6e0c
DTITLE=Jimmy Dawkins - Born in Poverty
DYEAR=1992
DGENRE=Blues
TTITLE0=Marcelle Morgantini's Cassoulet
TTITLE1=You've Got to Keep on Trying
TTITLE2=Born in Poverty
TTITLE3=Ain't Never Had Nothing
TTITLE4=Off Business
TTITLE5=Your Love
TTITLE6=Tribute to Orange
TTITLE7=Mississippi Bound
TTITLE8=It Serves You Right to Suffer
TTITLE9=Ode to Billy Joe
TTITLE10=Mean Atlantic Ocean
TTITLE11=Marcelle, Jacques et Luc
EXTD=
EXTT0=
EXTT1=
EXTT2=
EXTT3=
EXTT4=
EXTT5=
EXTT6=
EXTT7=
EXTT8=
EXTT9=
EXTT10=
EXTT11=
PLAYORDER=
